<svg width="32" height="32" viewBox="0 0 32 32" fill="none" xmlns="http://www.w3.org/2000/svg">
<path d="M10.3232 3.69805C11.8179 4.94022 14.0917 4.33094 14.7651 2.50784C15.1887 1.36083 16.811 1.36083 17.2347 2.50784C17.9081 4.33094 20.1819 4.94022 21.6766 3.69805C22.617 2.91654 24.022 3.72768 23.8153 4.93284C23.4869 6.84838 25.1515 8.51296 27.0671 8.18456C28.2722 7.97795 29.0834 9.3829 28.3019 10.3233C27.0597 11.818 27.669 14.0919 29.4921 14.7652C30.6391 15.1889 30.6391 16.8112 29.4921 17.2348C27.669 17.9082 27.0597 20.182 28.3019 21.6767C29.0834 22.6171 28.2722 24.0221 27.0671 23.8155C25.1515 23.4871 23.4869 25.1517 23.8153 27.0672C24.022 28.2724 22.617 29.0835 21.6766 28.302C20.1819 27.0598 17.9081 27.6691 17.2347 29.4922C16.811 30.6392 15.1887 30.6392 14.7651 29.4922C14.0917 27.6691 11.8179 27.0598 10.3232 28.302C9.38278 29.0835 7.97783 28.2724 8.18444 27.0672C8.51284 25.1517 6.84826 23.4871 4.93272 23.8155C3.72756 24.0221 2.91641 22.6171 3.69793 21.6767C4.9401 20.182 4.33082 17.9082 2.50772 17.2348C1.36071 16.8112 1.36071 15.1889 2.50772 14.7652C4.33081 14.0919 4.9401 11.818 3.69793 10.3233C2.91641 9.3829 3.72756 7.97795 4.93272 8.18456C6.84825 8.51296 8.51284 6.84838 8.18444 4.93284C7.97783 3.72768 9.38278 2.91654 10.3232 3.69805Z" stroke="#151515" stroke-width="1.5"/>
</svg>
